%TF.GenerationSoftware,KiCad,Pcbnew,9.0.1*%
%TF.CreationDate,2025-06-06T18:14:51+02:00*%
%TF.ProjectId,01_Energex8PCB_v1.0,30315f45-6e65-4726-9765-78385043425f,v1.0*%
%TF.SameCoordinates,Original*%
%TF.FileFunction,Paste,Top*%
%TF.FilePolarity,Positive*%
%FSLAX46Y46*%
G04 Gerber Fmt 4.6, Leading zero omitted, Abs format (unit mm)*
G04 Created by KiCad (PCBNEW 9.0.1) date 2025-06-06 18:14:51*
%MOMM*%
%LPD*%
G01*
G04 APERTURE LIST*
G04 Aperture macros list*
%AMRoundRect*
0 Rectangle with rounded corners*
0 $1 Rounding radius*
0 $2 $3 $4 $5 $6 $7 $8 $9 X,Y pos of 4 corners*
0 Add a 4 corners polygon primitive as box body*
4,1,4,$2,$3,$4,$5,$6,$7,$8,$9,$2,$3,0*
0 Add four circle primitives for the rounded corners*
1,1,$1+$1,$2,$3*
1,1,$1+$1,$4,$5*
1,1,$1+$1,$6,$7*
1,1,$1+$1,$8,$9*
0 Add four rect primitives between the rounded corners*
20,1,$1+$1,$2,$3,$4,$5,0*
20,1,$1+$1,$4,$5,$6,$7,0*
20,1,$1+$1,$6,$7,$8,$9,0*
20,1,$1+$1,$8,$9,$2,$3,0*%
G04 Aperture macros list end*
%ADD10RoundRect,0.250000X0.625000X-0.312500X0.625000X0.312500X-0.625000X0.312500X-0.625000X-0.312500X0*%
%ADD11RoundRect,0.250000X0.312500X0.625000X-0.312500X0.625000X-0.312500X-0.625000X0.312500X-0.625000X0*%
%ADD12RoundRect,0.250000X-0.625000X0.375000X-0.625000X-0.375000X0.625000X-0.375000X0.625000X0.375000X0*%
%ADD13RoundRect,0.250000X0.375000X0.625000X-0.375000X0.625000X-0.375000X-0.625000X0.375000X-0.625000X0*%
%ADD14RoundRect,0.250000X0.650000X-1.000000X0.650000X1.000000X-0.650000X1.000000X-0.650000X-1.000000X0*%
%ADD15RoundRect,0.250000X-0.312500X-0.625000X0.312500X-0.625000X0.312500X0.625000X-0.312500X0.625000X0*%
G04 APERTURE END LIST*
D10*
%TO.C,R11*%
X185420000Y-123835000D03*
X185420000Y-120910000D03*
%TD*%
D11*
%TO.C,R19*%
X221680500Y-133102000D03*
X218755500Y-133102000D03*
%TD*%
D12*
%TO.C,D2*%
X74676000Y-94364000D03*
X74676000Y-97164000D03*
%TD*%
D13*
%TO.C,D10*%
X70488000Y-53854000D03*
X67688000Y-53854000D03*
%TD*%
D10*
%TO.C,R10*%
X150114000Y-123835000D03*
X150114000Y-120910000D03*
%TD*%
D14*
%TO.C,D5*%
X74676000Y-105555200D03*
X74676000Y-101555200D03*
%TD*%
D15*
%TO.C,R3*%
X67625500Y-65284000D03*
X70550500Y-65284000D03*
%TD*%
D11*
%TO.C,R16*%
X150306500Y-133102000D03*
X147381500Y-133102000D03*
%TD*%
%TO.C,R15*%
X185485500Y-84842000D03*
X182560500Y-84842000D03*
%TD*%
D14*
%TO.C,D6*%
X78486000Y-105555200D03*
X78486000Y-101555200D03*
%TD*%
D11*
%TO.C,R18*%
X221680500Y-84842000D03*
X218755500Y-84842000D03*
%TD*%
D15*
%TO.C,R4*%
X67625500Y-56394000D03*
X70550500Y-56394000D03*
%TD*%
D10*
%TO.C,R8*%
X221488000Y-75382500D03*
X221488000Y-72457500D03*
%TD*%
D12*
%TO.C,D18*%
X218948000Y-120910000D03*
X218948000Y-123710000D03*
%TD*%
%TO.C,D17*%
X182880000Y-120904000D03*
X182880000Y-123704000D03*
%TD*%
D10*
%TO.C,R12*%
X221488000Y-123835000D03*
X221488000Y-120910000D03*
%TD*%
D11*
%TO.C,R20*%
X185612500Y-133102000D03*
X182687500Y-133102000D03*
%TD*%
D13*
%TO.C,D9*%
X70488000Y-62744000D03*
X67688000Y-62744000D03*
%TD*%
D14*
%TO.C,D8*%
X78442000Y-127006000D03*
X78442000Y-123006000D03*
%TD*%
D10*
%TO.C,R7*%
X185293000Y-75382500D03*
X185293000Y-72457500D03*
%TD*%
D12*
%TO.C,D11*%
X111970000Y-72644000D03*
X111970000Y-75444000D03*
%TD*%
D14*
%TO.C,D4*%
X78486000Y-84270000D03*
X78486000Y-80270000D03*
%TD*%
D11*
%TO.C,R14*%
X150245000Y-84842000D03*
X147320000Y-84842000D03*
%TD*%
D12*
%TO.C,D13*%
X182753000Y-72520000D03*
X182753000Y-75320000D03*
%TD*%
D10*
%TO.C,R2*%
X78486000Y-97232500D03*
X78486000Y-94307500D03*
%TD*%
D12*
%TO.C,D15*%
X112014000Y-120910000D03*
X112014000Y-123710000D03*
%TD*%
%TO.C,D12*%
X147512500Y-72517000D03*
X147512500Y-75317000D03*
%TD*%
%TO.C,D16*%
X147574000Y-120910000D03*
X147574000Y-123710000D03*
%TD*%
%TO.C,D1*%
X78486000Y-115954000D03*
X78486000Y-118754000D03*
%TD*%
D14*
%TO.C,D3*%
X74676000Y-84302000D03*
X74676000Y-80302000D03*
%TD*%
D12*
%TO.C,D14*%
X218948000Y-72520000D03*
X218948000Y-75320000D03*
%TD*%
D10*
%TO.C,R1*%
X74676000Y-118816500D03*
X74676000Y-115891500D03*
%TD*%
D11*
%TO.C,R17*%
X114746500Y-133102000D03*
X111821500Y-133102000D03*
%TD*%
%TO.C,R13*%
X114746500Y-84826000D03*
X111821500Y-84826000D03*
%TD*%
D10*
%TO.C,R5*%
X114510000Y-75506500D03*
X114510000Y-72581500D03*
%TD*%
%TO.C,R9*%
X114554000Y-123835000D03*
X114554000Y-120910000D03*
%TD*%
%TO.C,R6*%
X150114000Y-75444000D03*
X150114000Y-72519000D03*
%TD*%
D14*
%TO.C,D7*%
X74632000Y-127018200D03*
X74632000Y-123018200D03*
%TD*%
M02*
