%TF.GenerationSoftware,KiCad,Pcbnew,9.0.1*%
%TF.CreationDate,2025-06-06T18:14:51+02:00*%
%TF.ProjectId,01_Energex8PCB_v1.0,30315f45-6e65-4726-9765-78385043425f,v1.0*%
%TF.SameCoordinates,Original*%
%TF.FileFunction,Soldermask,Bot*%
%TF.FilePolarity,Negative*%
%FSLAX46Y46*%
G04 Gerber Fmt 4.6, Leading zero omitted, Abs format (unit mm)*
G04 Created by KiCad (PCBNEW 9.0.1) date 2025-06-06 18:14:51*
%MOMM*%
%LPD*%
G01*
G04 APERTURE LIST*
G04 Aperture macros list*
%AMRoundRect*
0 Rectangle with rounded corners*
0 $1 Rounding radius*
0 $2 $3 $4 $5 $6 $7 $8 $9 X,Y pos of 4 corners*
0 Add a 4 corners polygon primitive as box body*
4,1,4,$2,$3,$4,$5,$6,$7,$8,$9,$2,$3,0*
0 Add four circle primitives for the rounded corners*
1,1,$1+$1,$2,$3*
1,1,$1+$1,$4,$5*
1,1,$1+$1,$6,$7*
1,1,$1+$1,$8,$9*
0 Add four rect primitives between the rounded corners*
20,1,$1+$1,$2,$3,$4,$5,0*
20,1,$1+$1,$4,$5,$6,$7,0*
20,1,$1+$1,$6,$7,$8,$9,0*
20,1,$1+$1,$8,$9,$2,$3,0*%
G04 Aperture macros list end*
%ADD10RoundRect,0.102000X0.654000X-0.654000X0.654000X0.654000X-0.654000X0.654000X-0.654000X-0.654000X0*%
%ADD11C,1.512000*%
%ADD12C,3.000000*%
%ADD13C,6.204000*%
%ADD14RoundRect,0.102000X-3.000000X-3.000000X3.000000X-3.000000X3.000000X3.000000X-3.000000X3.000000X0*%
%ADD15O,7.000000X3.000000*%
%ADD16O,3.000000X9.000000*%
%ADD17RoundRect,0.102000X-0.654000X-0.654000X0.654000X-0.654000X0.654000X0.654000X-0.654000X0.654000X0*%
%ADD18C,1.854000*%
%ADD19RoundRect,0.102000X3.000000X-3.000000X3.000000X3.000000X-3.000000X3.000000X-3.000000X-3.000000X0*%
%ADD20C,0.800000*%
%ADD21C,6.400000*%
G04 APERTURE END LIST*
D10*
%TO.C,J37*%
X220768000Y-79016000D03*
D11*
X220768000Y-81016000D03*
%TD*%
D12*
%TO.C,F4*%
X123063000Y-80651000D03*
X123063000Y-83953000D03*
X136525000Y-80651000D03*
X136525000Y-83953000D03*
%TD*%
D13*
%TO.C,J28*%
X204260000Y-131324000D03*
D14*
X197060000Y-131324000D03*
%TD*%
D15*
%TO.C,U3*%
X88378000Y-89332000D03*
X88388000Y-98132000D03*
D16*
X102288000Y-93732000D03*
D15*
X88388000Y-93732000D03*
D16*
X94488000Y-93732000D03*
%TD*%
D13*
%TO.C,J25*%
X168954000Y-131324000D03*
D14*
X161754000Y-131324000D03*
%TD*%
D13*
%TO.C,J31*%
X240582000Y-131324000D03*
D14*
X233382000Y-131324000D03*
%TD*%
D17*
%TO.C,J5*%
X76438000Y-55674000D03*
D11*
X74438000Y-55674000D03*
%TD*%
D18*
%TO.C,J23*%
X150114000Y-111004000D03*
X147574000Y-111004000D03*
%TD*%
D10*
%TO.C,J38*%
X220768000Y-127276000D03*
D11*
X220768000Y-129276000D03*
%TD*%
D12*
%TO.C,F6*%
X193802000Y-80651000D03*
X193802000Y-83953000D03*
X207264000Y-80651000D03*
X207264000Y-83953000D03*
%TD*%
D15*
%TO.C,U4*%
X88374000Y-72904000D03*
X88384000Y-81704000D03*
D16*
X102284000Y-77304000D03*
D15*
X88384000Y-77304000D03*
D16*
X94484000Y-77304000D03*
%TD*%
D13*
%TO.C,J22*%
X133394000Y-131324000D03*
D14*
X126194000Y-131324000D03*
%TD*%
D15*
%TO.C,U7*%
X206770000Y-73748000D03*
X206760000Y-64948000D03*
D16*
X192860000Y-69348000D03*
D15*
X206760000Y-69348000D03*
D16*
X200660000Y-69348000D03*
%TD*%
D10*
%TO.C,J34*%
X184573000Y-79016000D03*
D11*
X184573000Y-81016000D03*
%TD*%
D18*
%TO.C,J20*%
X114554000Y-111004000D03*
X112014000Y-111004000D03*
%TD*%
D13*
%TO.C,J7*%
X88138000Y-55334000D03*
D19*
X88138000Y-62534000D03*
%TD*%
D10*
%TO.C,J32*%
X113834000Y-79016000D03*
D11*
X113834000Y-81016000D03*
%TD*%
D10*
%TO.C,J21*%
X113834000Y-115338000D03*
D11*
X113834000Y-117338000D03*
%TD*%
D18*
%TO.C,J14*%
X182753000Y-62744000D03*
X185293000Y-62744000D03*
%TD*%
D13*
%TO.C,J10*%
X133394000Y-55632000D03*
D14*
X126194000Y-55632000D03*
%TD*%
D18*
%TO.C,J8*%
X112014000Y-62744000D03*
X114554000Y-62744000D03*
%TD*%
D13*
%TO.C,J19*%
X240582000Y-55632000D03*
D14*
X233382000Y-55632000D03*
%TD*%
D10*
%TO.C,J30*%
X220726000Y-115338000D03*
D11*
X220726000Y-117338000D03*
%TD*%
D13*
%TO.C,J3*%
X64858000Y-75952000D03*
D14*
X57658000Y-75952000D03*
%TD*%
D20*
%TO.C,H1*%
X55258000Y-58934000D03*
X55960944Y-57236944D03*
X55960944Y-60631056D03*
X57658000Y-56534000D03*
D21*
X57658000Y-58934000D03*
D20*
X57658000Y-61334000D03*
X59355056Y-57236944D03*
X59355056Y-60631056D03*
X60058000Y-58934000D03*
%TD*%
D18*
%TO.C,J29*%
X221488000Y-111004000D03*
X218948000Y-111004000D03*
%TD*%
D12*
%TO.C,F7*%
X230251000Y-80645000D03*
X230251000Y-83947000D03*
X243713000Y-80645000D03*
X243713000Y-83947000D03*
%TD*%
D10*
%TO.C,J36*%
X113834000Y-127276000D03*
D11*
X113834000Y-129276000D03*
%TD*%
D20*
%TO.C,H4*%
X74181000Y-134285056D03*
X74883944Y-132588000D03*
X74883944Y-135982112D03*
X76581000Y-131885056D03*
D21*
X76581000Y-134285056D03*
D20*
X76581000Y-136685056D03*
X78278056Y-132588000D03*
X78278056Y-135982112D03*
X78981000Y-134285056D03*
%TD*%
D12*
%TO.C,F3*%
X54737000Y-85096000D03*
X54737000Y-88398000D03*
X68199000Y-85096000D03*
X68199000Y-88398000D03*
%TD*%
D15*
%TO.C,U10*%
X171464000Y-122008000D03*
X171454000Y-113208000D03*
D16*
X157554000Y-117608000D03*
D15*
X171454000Y-117608000D03*
D16*
X165354000Y-117608000D03*
%TD*%
D13*
%TO.C,J2*%
X64814000Y-97542000D03*
D14*
X57614000Y-97542000D03*
%TD*%
D18*
%TO.C,J26*%
X185420000Y-111004000D03*
X182880000Y-111004000D03*
%TD*%
D15*
%TO.C,U9*%
X135904000Y-122008000D03*
X135894000Y-113208000D03*
D16*
X121994000Y-117608000D03*
D15*
X135894000Y-117608000D03*
D16*
X129794000Y-117608000D03*
%TD*%
D15*
%TO.C,U6*%
X171402500Y-73748000D03*
X171392500Y-64948000D03*
D16*
X157492500Y-69348000D03*
D15*
X171392500Y-69348000D03*
D16*
X165292500Y-69348000D03*
%TD*%
D12*
%TO.C,F9*%
X158623000Y-103003000D03*
X158623000Y-106305000D03*
X172085000Y-103003000D03*
X172085000Y-106305000D03*
%TD*%
D10*
%TO.C,J39*%
X184700000Y-127276000D03*
D11*
X184700000Y-129276000D03*
%TD*%
D15*
%TO.C,U1*%
X88374000Y-122434000D03*
X88384000Y-131234000D03*
D16*
X102284000Y-126834000D03*
D15*
X88384000Y-126834000D03*
D16*
X94484000Y-126834000D03*
%TD*%
D20*
%TO.C,H3*%
X243044944Y-92970000D03*
X243747888Y-91272944D03*
X243747888Y-94667056D03*
X245444944Y-90570000D03*
D21*
X245444944Y-92970000D03*
D20*
X245444944Y-95370000D03*
X247142000Y-91272944D03*
X247142000Y-94667056D03*
X247844944Y-92970000D03*
%TD*%
D15*
%TO.C,U2*%
X88374000Y-105842000D03*
X88384000Y-114642000D03*
D16*
X102284000Y-110242000D03*
D15*
X88384000Y-110242000D03*
D16*
X94484000Y-110242000D03*
%TD*%
D15*
%TO.C,U11*%
X206770000Y-122008000D03*
X206760000Y-113208000D03*
D16*
X192860000Y-117608000D03*
D15*
X206760000Y-117608000D03*
D16*
X200660000Y-117608000D03*
%TD*%
D12*
%TO.C,F1*%
X54693000Y-127939200D03*
X54693000Y-131241200D03*
X68155000Y-127939200D03*
X68155000Y-131241200D03*
%TD*%
D10*
%TO.C,J27*%
X184700000Y-115338000D03*
D11*
X184700000Y-117338000D03*
%TD*%
D10*
%TO.C,J15*%
X184573000Y-67078000D03*
D11*
X184573000Y-69078000D03*
%TD*%
D12*
%TO.C,F10*%
X193929000Y-103003000D03*
X193929000Y-106305000D03*
X207391000Y-103003000D03*
X207391000Y-106305000D03*
%TD*%
D13*
%TO.C,J13*%
X168892500Y-55632000D03*
D14*
X161692500Y-55632000D03*
%TD*%
D12*
%TO.C,F5*%
X158561500Y-80651000D03*
X158561500Y-83953000D03*
X172023500Y-80651000D03*
X172023500Y-83953000D03*
%TD*%
D17*
%TO.C,J4*%
X76438000Y-64564000D03*
D11*
X74438000Y-64564000D03*
%TD*%
D10*
%TO.C,J18*%
X220768000Y-67062000D03*
D11*
X220768000Y-69062000D03*
%TD*%
D13*
%TO.C,J16*%
X204133000Y-55632000D03*
D14*
X196933000Y-55632000D03*
%TD*%
D12*
%TO.C,F11*%
X230251000Y-103003000D03*
X230251000Y-106305000D03*
X243713000Y-103003000D03*
X243713000Y-106305000D03*
%TD*%
D13*
%TO.C,J6*%
X100838000Y-55334000D03*
D19*
X100838000Y-62534000D03*
%TD*%
D10*
%TO.C,J33*%
X149332500Y-79000000D03*
D11*
X149332500Y-81000000D03*
%TD*%
D18*
%TO.C,J11*%
X147512500Y-62744000D03*
X150052500Y-62744000D03*
%TD*%
%TO.C,J17*%
X218948000Y-62744000D03*
X221488000Y-62744000D03*
%TD*%
D10*
%TO.C,J24*%
X149394000Y-115338000D03*
D11*
X149394000Y-117338000D03*
%TD*%
D15*
%TO.C,U8*%
X243092000Y-73748000D03*
X243082000Y-64948000D03*
D16*
X229182000Y-69348000D03*
D15*
X243082000Y-69348000D03*
D16*
X236982000Y-69348000D03*
%TD*%
D10*
%TO.C,J35*%
X149394000Y-127276000D03*
D11*
X149394000Y-129276000D03*
%TD*%
D15*
%TO.C,U12*%
X243092000Y-122008000D03*
X243082000Y-113208000D03*
D16*
X229182000Y-117608000D03*
D15*
X243082000Y-117608000D03*
D16*
X236982000Y-117608000D03*
%TD*%
D12*
%TO.C,F8*%
X123063000Y-103003000D03*
X123063000Y-106305000D03*
X136525000Y-103003000D03*
X136525000Y-106305000D03*
%TD*%
D15*
%TO.C,U5*%
X135948000Y-73748000D03*
X135938000Y-64948000D03*
D16*
X122038000Y-69348000D03*
D15*
X135938000Y-69348000D03*
D16*
X129838000Y-69348000D03*
%TD*%
D13*
%TO.C,J1*%
X64814000Y-118878000D03*
D14*
X57614000Y-118878000D03*
%TD*%
D12*
%TO.C,F2*%
X54737000Y-106476200D03*
X54737000Y-109778200D03*
X68199000Y-106476200D03*
X68199000Y-109778200D03*
%TD*%
D10*
%TO.C,J9*%
X113834000Y-67078000D03*
D11*
X113834000Y-69078000D03*
%TD*%
D10*
%TO.C,J12*%
X149332500Y-67078000D03*
D11*
X149332500Y-69078000D03*
%TD*%
M02*
