M48
; DRILL file {KiCad 9.0.1} date 2025-06-06T18:15:09+0200
; FORMAT={-:-/ absolute / inch / decimal}
; #@! TF.CreationDate,2025-06-06T18:15:09+02:00
; #@! TF.GenerationSoftware,Kicad,Pcbnew,9.0.1
; #@! TF.FileFunction,Plated,1,4,PTH
FMAT,2
INCH
; #@! TA.AperFunction,Plated,PTH,ViaDrill
T1C0.0157
; #@! TA.AperFunction,Plated,PTH,ComponentDrill
T2C0.0197
; #@! TA.AperFunction,Plated,PTH,ComponentDrill
T3C0.0315
; #@! TA.AperFunction,Plated,PTH,ComponentDrill
T4C0.0433
; #@! TA.AperFunction,Plated,PTH,ComponentDrill
T5C0.0472
; #@! TA.AperFunction,Plated,PTH,ComponentDrill
T6C0.0680
; #@! TA.AperFunction,Plated,PTH,ComponentDrill
T7C0.1260
; #@! TA.AperFunction,Plated,PTH,ComponentDrill
T8C0.1791
%
G90
G05
T1
X4.41Y-4.8705
X5.81Y-4.8705
X7.2Y-4.8702
X8.62Y-4.8705
T2
X2.1755Y-2.3202
X2.2032Y-2.2534
X2.2032Y-2.387
X2.27Y-2.2257
X2.27Y-2.4147
X2.3368Y-2.2534
X2.3368Y-2.387
X2.3645Y-2.3202
X2.9205Y-5.2868
X2.9482Y-5.22
X2.9482Y-5.3536
X3.015Y-5.1923
X3.015Y-5.3813
X3.0818Y-5.22
X3.0818Y-5.3536
X3.1095Y-5.2868
X9.5687Y-3.6602
X9.5964Y-3.5934
X9.5964Y-3.727
X9.6632Y-3.5657
X9.6632Y-3.7547
X9.73Y-3.5934
X9.73Y-3.727
X9.7577Y-3.6602
T3
X2.9306Y-2.1919
X2.9306Y-2.5419
X3.0094Y-2.1919
X3.0094Y-2.5419
X4.4817Y-2.6409
X4.4817Y-2.7196
X4.4817Y-3.1109
X4.4817Y-3.1896
X4.4817Y-4.5409
X4.4817Y-4.6196
X4.4817Y-5.0109
X4.4817Y-5.0896
X5.8792Y-2.6409
X5.8792Y-2.7196
X5.8792Y-3.1102
X5.8792Y-3.189
X5.8817Y-4.5409
X5.8817Y-4.6196
X5.8817Y-5.0109
X5.8817Y-5.0896
X7.2667Y-2.6409
X7.2667Y-2.7196
X7.2667Y-3.1109
X7.2667Y-3.1896
X7.2717Y-4.5409
X7.2717Y-4.6196
X7.2717Y-5.0109
X7.2717Y-5.0896
X8.69Y-4.5409
X8.69Y-4.6196
X8.6917Y-2.6402
X8.6917Y-2.719
X8.6917Y-3.1109
X8.6917Y-3.1896
X8.6917Y-5.0109
X8.6917Y-5.0896
T4
X4.41Y-2.4702
X4.41Y-4.3702
X4.51Y-2.4702
X4.51Y-4.3702
X5.8076Y-2.4702
X5.81Y-4.3702
X5.9076Y-2.4702
X5.91Y-4.3702
X7.195Y-2.4702
X7.2Y-4.3702
X7.295Y-2.4702
X7.3Y-4.3702
X8.62Y-2.4702
X8.62Y-4.3702
X8.72Y-2.4702
X8.72Y-4.3702
T6
X2.1533Y-5.037
X2.1533Y-5.167
X2.155Y-3.3502
X2.155Y-3.4802
X2.155Y-4.192
X2.155Y-4.322
X2.6833Y-5.037
X2.6833Y-5.167
X2.685Y-3.3502
X2.685Y-3.4802
X2.685Y-4.192
X2.685Y-4.322
X4.845Y-3.1752
X4.845Y-3.3052
X4.845Y-4.0552
X4.845Y-4.1852
X5.375Y-3.1752
X5.375Y-3.3052
X5.375Y-4.0552
X5.375Y-4.1852
X6.2426Y-3.1752
X6.2426Y-3.3052
X6.245Y-4.0552
X6.245Y-4.1852
X6.7726Y-3.1752
X6.7726Y-3.3052
X6.775Y-4.0552
X6.775Y-4.1852
X7.63Y-3.1752
X7.63Y-3.3052
X7.635Y-4.0552
X7.635Y-4.1852
X8.16Y-3.1752
X8.16Y-3.3052
X8.165Y-4.0552
X8.165Y-4.1852
X9.065Y-3.175
X9.065Y-3.305
X9.065Y-4.0552
X9.065Y-4.1852
X9.595Y-3.175
X9.595Y-3.305
X9.595Y-4.0552
X9.595Y-4.1852
T7
X2.27Y-2.3202
X3.015Y-5.2868
X9.6632Y-3.6602
T8
X2.2683Y-3.8402
X2.2683Y-4.6802
X2.27Y-2.9902
X2.5517Y-3.8402
X2.5517Y-4.6802
X2.5535Y-2.9902
X3.47Y-2.1785
X3.47Y-2.462
X3.97Y-2.1785
X3.97Y-2.462
X4.9683Y-2.1902
X4.9683Y-5.1702
X5.2517Y-2.1902
X5.2517Y-5.1702
X6.3658Y-2.1902
X6.3683Y-5.1702
X6.6493Y-2.1902
X6.6517Y-5.1702
X7.7533Y-2.1902
X7.7583Y-5.1702
X8.0367Y-2.1902
X8.0417Y-5.1702
X9.1883Y-2.1902
X9.1883Y-5.1702
X9.4717Y-2.1902
X9.4717Y-5.1702
T5
G00X3.5541Y-2.8702
M15
G01X3.4045Y-2.8702
M16
G05
G00X3.5541Y-4.167
M15
G01X3.4045Y-4.167
M16
G05
G00X3.5541Y-4.8202
M15
G01X3.4045Y-4.8202
M16
G05
G00X3.5543Y-3.517
M15
G01X3.4046Y-3.517
M16
G05
G00X3.5545Y-3.0435
M15
G01X3.4049Y-3.0435
M16
G05
G00X3.5545Y-3.2167
M15
G01X3.4049Y-3.2167
M16
G05
G00X3.5545Y-4.3402
M15
G01X3.4049Y-4.3402
M16
G05
G00X3.5545Y-4.5135
M15
G01X3.4049Y-4.5135
M16
G05
G00X3.5545Y-4.9935
M15
G01X3.4049Y-4.9935
M16
G05
G00X3.5545Y-5.1667
M15
G01X3.4049Y-5.1667
M16
G05
G00X3.5546Y-3.6902
M15
G01X3.405Y-3.6902
M16
G05
G00X3.5546Y-3.8635
M15
G01X3.405Y-3.8635
M16
G05
G00X3.7198Y-2.9332
M15
G01X3.7198Y-3.1537
M16
G05
G00X3.7198Y-4.23
M15
G01X3.7198Y-4.4505
M16
G05
G00X3.7198Y-4.8832
M15
G01X3.7198Y-5.1037
M16
G05
G00X3.72Y-3.58
M15
G01X3.72Y-3.8005
M16
G05
G00X4.0269Y-2.9332
M15
G01X4.0269Y-3.1537
M16
G05
G00X4.0269Y-4.23
M15
G01X4.0269Y-4.4505
M16
G05
G00X4.0269Y-4.8832
M15
G01X4.0269Y-5.1037
M16
G05
G00X4.0271Y-3.58
M15
G01X4.0271Y-3.8005
M16
G05
G00X4.8029Y-4.7405
M15
G01X4.8029Y-4.52
M16
G05
G00X4.8046Y-2.8405
M15
G01X4.8046Y-2.62
M16
G05
G00X5.11Y-4.7405
M15
G01X5.11Y-4.52
M16
G05
G00X5.1117Y-2.8405
M15
G01X5.1117Y-2.62
M16
G05
G00X5.2754Y-4.457
M15
G01X5.425Y-4.457
M16
G05
G00X5.2754Y-4.6302
M15
G01X5.425Y-4.6302
M16
G05
G00X5.2757Y-4.8035
M15
G01X5.4254Y-4.8035
M16
G05
G00X5.2771Y-2.557
M15
G01X5.4267Y-2.557
M16
G05
G00X5.2771Y-2.7302
M15
G01X5.4267Y-2.7302
M16
G05
G00X5.2775Y-2.9035
M15
G01X5.4271Y-2.9035
M16
G05
G00X6.2005Y-2.8405
M15
G01X6.2005Y-2.62
M16
G05
G00X6.2029Y-4.7405
M15
G01X6.2029Y-4.52
M16
G05
G00X6.5076Y-2.8405
M15
G01X6.5076Y-2.62
M16
G05
G00X6.51Y-4.7405
M15
G01X6.51Y-4.52
M16
G05
G00X6.6729Y-2.557
M15
G01X6.8225Y-2.557
M16
G05
G00X6.6729Y-2.7302
M15
G01X6.8225Y-2.7302
M16
G05
G00X6.6733Y-2.9035
M15
G01X6.8229Y-2.9035
M16
G05
G00X6.6754Y-4.457
M15
G01X6.825Y-4.457
M16
G05
G00X6.6754Y-4.6302
M15
G01X6.825Y-4.6302
M16
G05
G00X6.6757Y-4.8035
M15
G01X6.8254Y-4.8035
M16
G05
G00X7.5929Y-2.8405
M15
G01X7.5929Y-2.62
M16
G05
G00X7.5929Y-4.7405
M15
G01X7.5929Y-4.52
M16
G05
G00X7.9Y-2.8405
M15
G01X7.9Y-2.62
M16
G05
G00X7.9Y-4.7405
M15
G01X7.9Y-4.52
M16
G05
G00X8.0654Y-2.557
M15
G01X8.215Y-2.557
M16
G05
G00X8.0654Y-2.7302
M15
G01X8.215Y-2.7302
M16
G05
G00X8.0654Y-4.457
M15
G01X8.215Y-4.457
M16
G05
G00X8.0654Y-4.6302
M15
G01X8.215Y-4.6302
M16
G05
G00X8.0657Y-2.9035
M15
G01X8.2154Y-2.9035
M16
G05
G00X8.0657Y-4.8035
M15
G01X8.2154Y-4.8035
M16
G05
G00X9.0229Y-2.8405
M15
G01X9.0229Y-2.62
M16
G05
G00X9.0229Y-4.7405
M15
G01X9.0229Y-4.52
M16
G05
G00X9.33Y-2.8405
M15
G01X9.33Y-2.62
M16
G05
G00X9.33Y-4.7405
M15
G01X9.33Y-4.52
M16
G05
G00X9.4954Y-2.557
M15
G01X9.645Y-2.557
M16
G05
G00X9.4954Y-2.7302
M15
G01X9.645Y-2.7302
M16
G05
G00X9.4954Y-4.457
M15
G01X9.645Y-4.457
M16
G05
G00X9.4954Y-4.6302
M15
G01X9.645Y-4.6302
M16
G05
G00X9.4957Y-2.9035
M15
G01X9.6454Y-2.9035
M16
G05
G00X9.4957Y-4.8035
M15
G01X9.6454Y-4.8035
M16
G05
M30
